<?xml version="1.0" encoding="UTF-8"?>
<!DOCTYPE svg PUBLIC "-//W3C//DTD SVG 1.1//EN" "http://www.w3.org/Graphics/SVG/1.1/DTD/svg11.dtd">
<svg xmlns="http://www.w3.org/2000/svg" version="1.1" width="512px" height="512px" style="shape-rendering:geometricPrecision; text-rendering:geometricPrecision; image-rendering:optimizeQuality; fill-rule:evenodd; clip-rule:evenodd" xmlns:xlink="http://www.w3.org/1999/xlink">
<g><path style="opacity:0.945" fill="#000000" d="M 242.5,-0.5 C 251.167,-0.5 259.833,-0.5 268.5,-0.5C 293.448,4.22547 314.614,15.8921 332,34.5C 333.631,23.8539 339.465,20.3539 349.5,24C 350.787,25.4095 351.954,26.9095 353,28.5C 353.667,41.5 353.667,54.5 353,67.5C 351.301,71.205 348.467,73.3717 344.5,74C 332.096,74.939 319.762,74.6057 307.5,73C 299.519,66.7143 299.519,60.381 307.5,54C 311.833,53.6667 316.167,53.3333 320.5,53C 303.569,32.4516 281.736,21.6183 255,20.5C 242.012,20.4556 229.845,23.6222 218.5,30C 196.913,43.9221 179.746,62.0888 167,84.5C 142.936,129.078 129.603,176.745 127,227.5C 123.656,275.407 128.656,322.407 142,368.5C 200.251,385.42 259.418,389.253 319.5,380C 368.629,373.251 412.963,355.251 452.5,326C 465.743,315.009 476.243,301.842 484,286.5C 486.602,280.361 488.602,274.028 490,267.5C 490.051,257.734 490.718,248.067 492,238.5C 500.176,232.211 506.676,233.545 511.5,242.5C 511.5,251.167 511.5,259.833 511.5,268.5C 506.266,295.131 493.599,317.631 473.5,336C 444.699,360.408 412.032,378.074 375.5,389C 312.33,406.768 248.33,410.435 183.5,400C 173.222,398.344 163.055,396.178 153,393.5C 162.935,425.424 181.101,452.258 207.5,474C 244.207,497.968 279.207,495.635 312.5,467C 320.985,465.157 325.985,468.491 327.5,477C 326.869,480.597 325.202,483.597 322.5,486C 306.617,499.109 288.617,507.609 268.5,511.5C 259.833,511.5 251.167,511.5 242.5,511.5C 212.664,505.327 188.164,490.327 169,466.5C 150.108,442.394 135.608,415.727 125.5,386.5C 101.587,377.377 78.9203,365.877 57.5,352C 34.9443,336.442 17.7776,316.276 6,291.5C 3.07375,283.908 0.907084,276.241 -0.5,268.5C -0.5,259.833 -0.5,251.167 -0.5,242.5C 4.34615,217.477 16.0128,196.144 34.5,178.5C 23.6746,176.515 20.5079,170.515 25,160.5C 27.0424,158.396 29.5424,157.229 32.5,157C 43.1667,156.333 53.8333,156.333 64.5,157C 69.4377,157.272 72.6044,159.772 74,164.5C 74.6667,176.833 74.6667,189.167 74,201.5C 73.214,204.583 71.3807,206.749 68.5,208C 61.5632,210.22 56.7299,208.053 54,201.5C 53.6667,197.833 53.3333,194.167 53,190.5C 28.8537,210.471 18.187,236.138 21,267.5C 25.5317,286.067 34.365,302.233 47.5,316C 67.5287,335.025 90.5287,349.525 116.5,359.5C 116.833,359 117.167,358.5 117.5,358C 104.427,302.33 101.927,246.163 110,189.5C 116.677,141.789 133.011,97.7891 159,57.5C 174.558,34.9443 194.724,17.7776 219.5,6C 227.092,3.07375 234.759,0.907084 242.5,-0.5 Z"/></g>
<g><path style="opacity:0.943" fill="#000000" d="M 451.5,132.5 C 474.304,131.139 485.47,141.806 485,164.5C 478.771,183.031 466.271,189.531 447.5,184C 431.33,174.17 427.497,160.67 436,143.5C 440.127,138.202 445.294,134.535 451.5,132.5 Z M 455.5,153.5 C 461.784,152.619 464.617,155.286 464,161.5C 460.333,166.833 456.667,166.833 453,161.5C 452.018,158.225 452.851,155.559 455.5,153.5 Z"/></g>
<g><path style="opacity:0.945" fill="#000000" d="M 179.5,148.5 C 191.886,148.106 204.22,148.606 216.5,150C 225.834,153.335 231.667,159.835 234,169.5C 234.667,199.833 234.667,230.167 234,260.5C 231.611,271.223 225.111,278.056 214.5,281C 201.833,281.667 189.167,281.667 176.5,281C 161.157,275.806 154.99,265.306 158,249.5C 163.605,242.099 169.605,241.766 176,248.5C 177.092,251.044 177.759,253.711 178,256.5C 178.465,257.931 179.299,259.097 180.5,260C 190.5,260.667 200.5,260.667 210.5,260C 211.333,259.167 212.167,258.333 213,257.5C 213.5,246.839 213.667,236.172 213.5,225.5C 203.828,225.666 194.161,225.5 184.5,225C 177.773,220.923 176.273,215.423 180,208.5C 181.8,206.683 183.966,205.516 186.5,205C 195.494,204.5 204.494,204.334 213.5,204.5C 213.667,193.828 213.5,183.161 213,172.5C 212.097,171.299 210.931,170.465 209.5,170C 200.167,169.333 190.833,169.333 181.5,170C 180.584,170.374 179.75,170.874 179,171.5C 178.191,175.396 176.857,179.063 175,182.5C 164.887,188.193 158.72,185.36 156.5,174C 158.159,159.851 165.825,151.351 179.5,148.5 Z"/></g>
<g><path style="opacity:0.949" fill="#000000" d="M 267.5,148.5 C 278.838,148.333 290.172,148.5 301.5,149C 307.165,150.168 310.165,153.668 310.5,159.5C 309.739,163.866 307.406,167.033 303.5,169C 291.404,169.04 279.404,169.707 267.5,171C 267,171.5 266.5,172 266,172.5C 265.5,181.827 265.334,191.161 265.5,200.5C 278.171,200.333 290.838,200.5 303.5,201C 315.434,202.933 322.934,209.766 326,221.5C 335.804,272.361 315.304,292.194 264.5,281C 253.889,278.056 247.389,271.223 245,260.5C 244.333,230.167 244.333,199.833 245,169.5C 248.24,157.755 255.74,150.755 267.5,148.5 Z M 265.5,221.5 C 278.266,221.039 290.933,221.539 303.5,223C 304.126,223.75 304.626,224.584 305,225.5C 305.667,236.167 305.667,246.833 305,257.5C 304.167,258.333 303.333,259.167 302.5,260C 291.167,260.667 279.833,260.667 268.5,260C 267.667,259.167 266.833,258.333 266,257.5C 265.5,245.505 265.333,233.505 265.5,221.5 Z"/></g>
<g><path style="opacity:0.95" fill="#000000" d="M 359.5,148.5 C 371.505,148.333 383.505,148.5 395.5,149C 407.434,150.933 414.934,157.766 418,169.5C 418.667,199.833 418.667,230.167 418,260.5C 415.611,271.223 409.111,278.056 398.5,281C 384.5,281.667 370.5,281.667 356.5,281C 347.73,278.373 341.563,272.873 338,264.5C 336.363,232.881 336.03,201.214 337,169.5C 340.24,157.755 347.74,150.755 359.5,148.5 Z M 361.5,169.5 C 372.172,169.333 382.839,169.5 393.5,170C 394.931,170.465 396.097,171.299 397,172.5C 397.667,200.833 397.667,229.167 397,257.5C 396.167,258.333 395.333,259.167 394.5,260C 383.167,260.667 371.833,260.667 360.5,260C 359.667,259.167 358.833,258.333 358,257.5C 357.333,229.167 357.333,200.833 358,172.5C 359.145,171.364 360.312,170.364 361.5,169.5 Z"/></g>
<g><path style="opacity:0.901" fill="#000000" d="M 488.5,201.5 C 498.558,203.223 501.892,208.889 498.5,218.5C 494.974,222.293 490.64,223.46 485.5,222C 479.458,218.252 477.958,213.085 481,206.5C 482.913,203.72 485.413,202.053 488.5,201.5 Z"/></g>
<g><path style="opacity:0.892" fill="#000000" d="M 338.5,437.5 C 348.974,435.814 353.807,440.148 353,450.5C 351.383,455.309 348.05,457.975 343,458.5C 334.982,457.152 331.648,452.485 333,444.5C 333.967,441.379 335.8,439.046 338.5,437.5 Z"/></g>
</svg>
