<?xml version="1.0" encoding="utf-8"?>
<!-- Generator: Adobe Illustrator 16.0.0, SVG Export Plug-In . SVG Version: 6.00 Build 0)  -->
<!DOCTYPE svg PUBLIC "-//W3C//DTD SVG 1.1//EN" "http://www.w3.org/Graphics/SVG/1.1/DTD/svg11.dtd">
<svg version="1.1" id="Layer_1" xmlns="http://www.w3.org/2000/svg" xmlns:xlink="http://www.w3.org/1999/xlink" x="0px" y="0px"
	 width="512px" height="512px" viewBox="0 0 512 512" enable-background="new 0 0 512 512" xml:space="preserve">
<g transform="translate(0.000000,512.000000) scale(0.100000,-0.100000)">
	<path fill="#FFFFFF" d="M2370,5112.998c-468-43.999-863-180-1220-418.999C765,4437.001,467.004,4097.001,265,3685
		C97.004,3345,17.004,3023.999,3,2645c-15-425.996,73-832.002,263-1214.004c133-268.994,271.004-458.994,488-676.992
		c221-220,412-357.002,681-489.004c187.996-92.002,309-137.002,500-185c196-49.004,342.996-70,545-77.002
		c580-20,1142.996,157.998,1615,511.006C4232.996,617.002,4474.004,852.998,4572,980c495.996,644.004,663,1434.004,468,2210
		c-59.004,235-182.004,525-305.996,720c-211.008,332.998-537.004,652.998-856.008,842.998
		C3465,4998.999,3007,5123.999,2540,5117.998C2466,5117.998,2389,5115,2370,5112.998z M2775.996,4868.999
		c677-66.001,1280-416.001,1681.004-976.997c312.004-437.002,465-1010,412.004-1547.998
		C4817.996,1815,4595.996,1334.004,4227,952.998c-172.996-178.994-331.004-300.996-537-417.002
		c-695.996-390-1537.004-393.994-2240-10c-207.004,113.008-343,215-526,398.008c-229,230-378,446.992-496.996,727.998
		C178,2234.004,180,2892.998,431,3477.001c121.004,282.998,286.996,520.996,518,745c328.996,320,718,525,1161,611.997
		C2339,4878.999,2557.996,4891,2775.996,4868.999z"/>
	<path fill="#FFFFFF" d="M1777.996,4048.999c-50.996-7.998-255-86.997-387.996-151.997c-210-102.002-320-295-320-563.003
		c0-191.997,50-372.998,169-608.999c383-757.998,1252-1504.004,1908.996-1640c40-7.998,124.004-15,186.008-15
		c198.992,0,337.996,50.996,456.992,170c71.004,70.996,114.004,149.004,205,375c57,142.998,68.008,227.998,38.008,317.002
		c-30,92.002-93.008,142.002-389.004,310c-300,170.996-332.004,182.002-440.996,155c-85-21.006-146.008-65-204.004-147.002
		c-72.004-102.002-154.004-132.998-245.996-90.996C2637,2212.002,2212.996,2636.001,2159,2753.999c-42,93.003-14,170,90,246.001
		c86,62.998,126,117.998,148,205c27,107.998,15,141.001-155,437.998C2161,3786,2076,3923.999,2052,3950
		C1984,4027.998,1882,4063.999,1777.996,4048.999z M1872.996,3792.998C1887.996,3775,2115,3388.999,2152,3316
		c28-55,18-77.002-57-131.001c-120-85-181-191.001-192.004-330C1897,2780,1914,2701.001,1951,2628.999
		c73-143.999,534-604.995,678.004-678.003c71.992-36.992,150.996-53.994,225.996-47.998c137,10,240.996,70,327,187.998
		c28,39.004,60.996,72.002,73,75c12.996,3.008,39.004-2.998,60.996-13.994c73.008-37.002,459.004-264.004,477-279.004
		c27.004-25,21.008-65-33.992-200.996c-97.004-239.004-125-277.998-234.004-329.004c-52.004-23.994-74.004-27.998-175-30.996
		c-98-2.998-130,0-214.004,22.002c-541.992,140-1265.996,760.996-1633,1401.997C1285,3117.998,1247,3452.001,1404,3617.998
		c38,41.001,73,60,251,133.003C1802.996,3812.998,1847,3821,1872.996,3792.998z"/>
</g>
</svg>
