<?xml version="1.0" encoding="utf-8"?>
<!-- Generator: Adobe Illustrator 16.0.0, SVG Export Plug-In . SVG Version: 6.00 Build 0)  -->
<!DOCTYPE svg PUBLIC "-//W3C//DTD SVG 1.1//EN" "http://www.w3.org/Graphics/SVG/1.1/DTD/svg11.dtd">
<svg version="1.1" id="Layer_1" xmlns="http://www.w3.org/2000/svg" xmlns:xlink="http://www.w3.org/1999/xlink" x="0px" y="0px"
	 width="512px" height="512px" viewBox="0 0 512 512" enable-background="new 0 0 512 512" xml:space="preserve">
<g transform="translate(0.000000,512.000000) scale(0.100000,-0.100000)">
	<path d="M4789.873,2750.122c-37.002,19.004-77.002,19.004-1938.994,19.004c-1045,0-1900,2.998-1900,7.002
		c0,3.994,167.988,175.996,374.004,382.998c343.994,345,373.994,379.004,383.994,420.996
		c37.002,153.008-113.994,299.004-265.996,259.004c-42.998-12.002-92.002-57.998-615.01-579.004
		c-332.988-330.996-576.992-581.992-589.004-605c-26.992-51.992-26.992-131.001,0-188.003
		c32.012-63.994,1111.016-1140,1172.012-1166.992c59.004-27.002,114.004-26.006,175.996,2.998
		c76.992,35.996,124.004,110.996,124.004,195c-0.996,80-25.996,110.996-403.008,488.994l-361.992,362.002h1900
		c1835,0,1900.996,1.006,1940.996,19.004c45.996,20.996,91.992,72.998,110.996,122.998
		C4932.871,2589.125,4886.875,2700.122,4789.873,2750.122z"/>
</g>
</svg>
