<?xml version="1.0" encoding="utf-8"?>
<!-- Generator: Adobe Illustrator 16.0.0, SVG Export Plug-In . SVG Version: 6.00 Build 0)  -->
<!DOCTYPE svg PUBLIC "-//W3C//DTD SVG 1.1//EN" "http://www.w3.org/Graphics/SVG/1.1/DTD/svg11.dtd">
<svg version="1.1" id="Layer_1" xmlns="http://www.w3.org/2000/svg" xmlns:xlink="http://www.w3.org/1999/xlink" x="0px" y="0px"
	 width="512px" height="512px" viewBox="0 0 512 512" enable-background="new 0 0 512 512" xml:space="preserve">
<g transform="translate(0.000000,512.000000) scale(0.100000,-0.100000)">
	<path d="M4897.871,2635.293c-19.004,50-65,102.012-111.008,123.008c-40,17.998-105.996,19.004-1941.004,19.004L945.867,2777.3
		l361.992,361.992c377.012,378.008,402.012,409.004,403.008,489.009c0,84.004-47.012,159.004-124.004,195
		c-61.992,29.004-116.992,30-175.996,2.998c-60.996-27.002-1139.996-1103.003-1172.008-1167.007
		c-26.992-56.992-26.992-136.001,0-187.993c12.012-23.008,256.016-274.004,589-605c523.008-521.006,572.012-567.002,615-579.004
		c152.012-40,303.008,105.996,265.996,259.004c-10,41.992-40,75.996-383.984,420.996
		c-206.016,207.002-374.004,379.004-374.004,382.998c0,4.004,855,7.002,1899.992,7.002c1862.012,0,1902.012,0,1939.004,19.004
		C4886.863,2426.299,4932.871,2537.295,4897.871,2635.293z"/>
</g>
</svg>
