<?xml version="1.0" encoding="utf-8"?>
<!-- Generator: Adobe Illustrator 16.0.0, SVG Export Plug-In . SVG Version: 6.00 Build 0)  -->
<!DOCTYPE svg PUBLIC "-//W3C//DTD SVG 1.1//EN" "http://www.w3.org/Graphics/SVG/1.1/DTD/svg11.dtd">
<svg version="1.1" xmlns="http://www.w3.org/2000/svg" xmlns:xlink="http://www.w3.org/1999/xlink" x="0px" y="0px" width="130px"
	 height="58.667px" viewBox="0 0 130 58.667" enable-background="new 0 0 130 58.667" xml:space="preserve">
<g id="Layer_2">
	<g>
		<defs>
			<path id="SVGID_1_" d="M12.363,25.705c0.944-2.472,1.884-4.789,2.82-6.954c0.921,2.165,1.846,4.482,2.775,6.954
				s1.861,4.783,2.798,6.931h-5.607H9.565C10.486,30.488,11.419,28.177,12.363,25.705 M2.586,37.125l2.765,4.838l2.532-5.643h7.266
				h7.288l2.533,5.643h4.905L15.161,7.398L2.586,37.125z"/>
		</defs>
		<clipPath id="SVGID_2_">
			<use xlink:href="#SVGID_1_"  overflow="visible"/>
		</clipPath>
		
			<linearGradient id="SVGID_3_" gradientUnits="userSpaceOnUse" x1="-75.5215" y1="170.8511" x2="-74.5215" y2="170.8511" gradientTransform="matrix(124.1187 37.3 37.3 -124.1187 2999.8447 24042.2637)">
			<stop  offset="0" style="stop-color:#987530"/>
			<stop  offset="0.4804" style="stop-color:#AE8F3F"/>
			<stop  offset="1" style="stop-color:#BC9B3E"/>
		</linearGradient>
		<polygon clip-path="url(#SVGID_2_)" fill="url(#SVGID_3_)" points="4.846,-0.124 39.402,10.261 27.615,49.484 -6.941,39.099 		"/>
	</g>
	<g>
		<defs>
			<path id="SVGID_4_" d="M55.393,19.439V31.15c0,1.889,0.324,3.625,0.968,5.205c0.661,1.598,1.658,3.057,2.993,4.375
				c1.29,1.336,2.756,2.342,4.399,3.018c1.581,0.645,3.323,0.967,5.228,0.967c1.872,0,3.6-0.33,5.181-0.99
				c0.957-0.383,1.887-0.912,2.791-1.588v-7.053c-0.458,0.887-1.03,1.668-1.732,2.33c-0.845,0.861-1.804,1.514-2.878,1.959
				c-1.091,0.443-2.218,0.668-3.386,0.668c-1.228,0-2.363-0.225-3.407-0.668c-1.074-0.43-2.042-1.082-2.902-1.959
				c-0.89-0.904-1.542-1.863-1.957-2.877c-0.445-1.074-0.668-2.211-0.668-3.408V19.439H55.393z"/>
		</defs>
		<clipPath id="SVGID_5_">
			<use xlink:href="#SVGID_4_"  overflow="visible"/>
		</clipPath>
		
			<linearGradient id="SVGID_6_" gradientUnits="userSpaceOnUse" x1="-75.5215" y1="170.8452" x2="-74.5215" y2="170.8452" gradientTransform="matrix(124.1189 37.3 37.3 -124.1189 3002.2432 24034.4277)">
			<stop  offset="0" style="stop-color:#987530"/>
			<stop  offset="0.4804" style="stop-color:#AE8F3F"/>
			<stop  offset="1" style="stop-color:#BC9B3E"/>
		</linearGradient>
		<polygon clip-path="url(#SVGID_5_)" fill="url(#SVGID_6_)" points="57.179,13.497 83.918,21.532 75.166,50.656 48.427,42.621 		
			"/>
	</g>
	<g>
		<defs>
			<path id="SVGID_7_" d="M84.72,36.082v-9.089v-1.441h1.465c0.325,0,0.663-0.003,1.012-0.011c0.348-0.008,0.702-0.012,1.057-0.012
				c0.729-0.015,1.453-0.027,2.174-0.035c0.722-0.007,1.477,0.011,2.267,0.058c0.729,0.047,1.448,0.241,2.162,0.583
				c0.65,0.293,1.263,0.721,1.837,1.277c0.542,0.559,0.968,1.209,1.277,1.953c0.294,0.742,0.442,1.494,0.442,2.254
				s-0.148,1.52-0.442,2.277c-0.341,0.791-0.767,1.434-1.277,1.932c-0.513,0.541-1.141,0.967-1.884,1.277
				c-0.743,0.293-1.48,0.441-2.209,0.441h-4.928h-1.487H84.72V36.082z M84.72,20.136v-6.857v-1.441h1.465h0.349h2.604
				c0.62,0,1.209,0.116,1.768,0.348c0.572,0.264,1.068,0.597,1.487,1c0.434,0.481,0.767,0.992,0.999,1.535
				c0.232,0.557,0.35,1.154,0.35,1.789c0,0.651-0.117,1.256-0.35,1.814s-0.565,1.069-0.999,1.533
				c-0.512,0.512-1.016,0.884-1.512,1.116c-0.403,0.186-0.968,0.326-1.697,0.419l-0.093,0.023c-0.17,0-0.363,0.007-0.581,0.023
				c-0.96,0.062-1.72,0.108-2.276,0.139l-1.513,0.07V20.136z M86.533,7.398h-6.392v34.564H85h1.185h1.487H92.6
				c1.35,0,2.65-0.256,3.905-0.766c1.271-0.543,2.387-1.303,3.348-2.279c0.962-0.977,1.697-2.092,2.208-3.346
				c0.512-1.209,0.768-2.527,0.768-3.953c0-1.41-0.256-2.719-0.768-3.928c-0.511-1.24-1.246-2.364-2.208-3.371
				c-0.295-0.279-0.636-0.55-1.022-0.813c-0.48-0.295-0.961-0.558-1.442-0.791l-1.44-0.65l0.767-1.372
				c0.435-0.76,0.775-1.557,1.024-2.394c0.231-0.822,0.348-1.518,0.348-2.092c0-1.193-0.217-2.309-0.651-3.347
				c-0.448-1.008-1.084-1.929-1.905-2.766c-0.837-0.853-1.813-1.518-2.93-1.999c-1.131-0.465-2.285-0.698-3.463-0.698H86.533z"/>
		</defs>
		<clipPath id="SVGID_8_">
			<use xlink:href="#SVGID_7_"  overflow="visible"/>
		</clipPath>
		
			<linearGradient id="SVGID_9_" gradientUnits="userSpaceOnUse" x1="-75.5215" y1="170.853" x2="-74.5215" y2="170.853" gradientTransform="matrix(124.1185 37.2999 37.2999 -124.1185 3006.0693 24021.5254)">
			<stop  offset="0" style="stop-color:#987530"/>
			<stop  offset="0.4804" style="stop-color:#AE8F3F"/>
			<stop  offset="1" style="stop-color:#BC9B3E"/>
		</linearGradient>
		<polygon clip-path="url(#SVGID_8_)" fill="url(#SVGID_9_)" points="82.021,1.145 112.355,10.261 100.949,48.216 70.615,39.099 		
			"/>
	</g>
	<g>
		<defs>
			<polygon id="SVGID_10_" points="105.339,7.398 105.339,41.962 111.377,41.962 124.911,41.962 124.911,37.382 111.377,37.382 
				109.942,37.382 109.942,35.923 109.942,28.405 109.942,26.972 111.377,26.972 121.164,26.972 121.164,22.391 111.377,22.391 
				109.942,22.391 109.942,20.933 109.942,13.414 109.942,11.979 111.377,11.979 124.911,11.979 124.911,7.398 			"/>
		</defs>
		<clipPath id="SVGID_11_">
			<use xlink:href="#SVGID_10_"  overflow="visible"/>
		</clipPath>
		
			<linearGradient id="SVGID_12_" gradientUnits="userSpaceOnUse" x1="-75.5215" y1="170.8364" x2="-74.5215" y2="170.8364" gradientTransform="matrix(124.1184 37.2999 37.2999 -124.1184 3008.5625 24013.2441)">
			<stop  offset="0" style="stop-color:#987530"/>
			<stop  offset="0.4804" style="stop-color:#AE8F3F"/>
			<stop  offset="1" style="stop-color:#BC9B3E"/>
		</linearGradient>
		<polygon clip-path="url(#SVGID_11_)" fill="url(#SVGID_12_)" points="106.96,2.003 134.438,10.261 123.29,47.357 95.812,39.099 		
			"/>
	</g>
	<g>
		<defs>
			<path id="SVGID_13_" d="M50.032,1.456c-5.967-0.001-11.39,2.425-15.299,6.338c-3.911,3.907-6.338,9.331-6.337,15.299
				c-0.001,5.967,2.426,11.391,6.337,15.299c3.909,3.91,9.332,6.338,15.299,6.336c0.985,0,1.951-0.07,2.901-0.199v-4.555
				c-0.942,0.16-1.91,0.248-2.901,0.25c-4.737-0.002-9.006-1.914-12.113-5.018c-3.104-3.107-5.017-7.377-5.018-12.114
				c0.001-4.739,1.914-9.007,5.018-12.114c3.107-3.104,7.376-5.017,12.113-5.018c4.56,0.001,8.682,1.776,11.755,4.675h5.931
				c-0.715-1.015-1.511-1.969-2.387-2.842c-3.907-3.912-9.329-6.338-15.295-6.338C50.034,1.456,50.034,1.456,50.032,1.456"/>
		</defs>
		<clipPath id="SVGID_14_">
			<use xlink:href="#SVGID_13_"  overflow="visible"/>
		</clipPath>
		
			<linearGradient id="SVGID_15_" gradientUnits="userSpaceOnUse" x1="-75.5215" y1="170.8335" x2="-74.5215" y2="170.8335" gradientTransform="matrix(124.1185 37.2999 37.2999 -124.1185 3003.5723 24029.7793)">
			<stop  offset="0" style="stop-color:#987530"/>
			<stop  offset="0.4804" style="stop-color:#AE8F3F"/>
			<stop  offset="1" style="stop-color:#BC9B3E"/>
		</linearGradient>
		<polygon clip-path="url(#SVGID_14_)" fill="url(#SVGID_15_)" points="31.652,-9.384 79.646,5.04 64.461,55.568 16.467,41.146 		
			"/>
	</g>
	<g>
		<defs>
			<path id="SVGID_16_" d="M4.177,49.792h1.069c0.305,0,0.578,0.051,0.818,0.154c0.239,0.102,0.442,0.248,0.607,0.438
				c0.166,0.191,0.293,0.424,0.381,0.699c0.088,0.273,0.133,0.58,0.133,0.922c0,0.344-0.045,0.652-0.133,0.926
				c-0.088,0.275-0.215,0.506-0.381,0.697c-0.165,0.189-0.368,0.338-0.607,0.439c-0.24,0.102-0.513,0.154-0.818,0.154H4.177V49.792z
				 M2.57,48.562v6.889h2.676c0.536,0,1.024-0.084,1.463-0.258c0.44-0.17,0.816-0.41,1.128-0.717
				c0.312-0.309,0.554-0.672,0.726-1.094c0.172-0.42,0.257-0.879,0.257-1.377c0-0.496-0.085-0.953-0.257-1.373
				c-0.172-0.422-0.414-0.785-0.726-1.092c-0.312-0.305-0.688-0.545-1.128-0.717c-0.439-0.174-0.927-0.262-1.463-0.262H2.57z"/>
		</defs>
		<clipPath id="SVGID_17_">
			<use xlink:href="#SVGID_16_"  overflow="visible"/>
		</clipPath>
		
			<linearGradient id="SVGID_18_" gradientUnits="userSpaceOnUse" x1="-75.5171" y1="170.8394" x2="-74.5171" y2="170.8394" gradientTransform="matrix(156.6289 47.0699 47.0699 -156.6289 3707.0625 30339.3652)">
			<stop  offset="0" style="stop-color:#987530"/>
			<stop  offset="0.4804" style="stop-color:#AE8F3F"/>
			<stop  offset="1" style="stop-color:#BC9B3E"/>
		</linearGradient>
		<polygon clip-path="url(#SVGID_17_)" fill="url(#SVGID_18_)" points="3.088,46.839 10.718,49.134 8.302,57.173 0.671,54.88 		"/>
	</g>
	<g>
		<defs>
			<polygon id="SVGID_19_" points="14.032,48.562 14.032,55.451 18.467,55.451 18.467,54.222 15.64,54.222 15.64,52.582 
				17.805,52.582 17.805,51.4 15.64,51.4 15.64,49.792 18.467,49.792 18.467,48.562 			"/>
		</defs>
		<clipPath id="SVGID_20_">
			<use xlink:href="#SVGID_19_"  overflow="visible"/>
		</clipPath>
		
			<linearGradient id="SVGID_21_" gradientUnits="userSpaceOnUse" x1="-75.5171" y1="170.8374" x2="-74.5171" y2="170.8374" gradientTransform="matrix(156.6296 47.0701 47.0701 -156.6296 3711.0176 30336.9512)">
			<stop  offset="0" style="stop-color:#987530"/>
			<stop  offset="0.4804" style="stop-color:#AE8F3F"/>
			<stop  offset="1" style="stop-color:#BC9B3E"/>
		</linearGradient>
		<polygon clip-path="url(#SVGID_20_)" fill="url(#SVGID_21_)" points="14.399,47.341 20.366,49.134 18.1,56.673 12.133,54.88 		"/>
	</g>
	<g>
		<defs>
			<path id="SVGID_22_" d="M28.6,48.562c-0.132,0-0.243,0.037-0.333,0.107c-0.09,0.07-0.152,0.148-0.188,0.238l-1.323,3.688
				c-0.063,0.162-0.122,0.338-0.176,0.527c-0.056,0.191-0.106,0.391-0.15,0.598c-0.053-0.207-0.11-0.406-0.17-0.598
				c-0.061-0.189-0.122-0.365-0.185-0.527l-1.333-3.688c-0.044-0.102-0.109-0.184-0.194-0.248s-0.196-0.098-0.335-0.098h-1.286
				l2.761,6.889h1.446l2.762-6.889H28.6z"/>
		</defs>
		<clipPath id="SVGID_23_">
			<use xlink:href="#SVGID_22_"  overflow="visible"/>
		</clipPath>
		
			<linearGradient id="SVGID_24_" gradientUnits="userSpaceOnUse" x1="-75.5171" y1="170.8345" x2="-74.5171" y2="170.8345" gradientTransform="matrix(156.6279 47.0696 47.0696 -156.6279 3714.8262 30334.4355)">
			<stop  offset="0" style="stop-color:#987530"/>
			<stop  offset="0.4804" style="stop-color:#AE8F3F"/>
			<stop  offset="1" style="stop-color:#BC9B3E"/>
		</linearGradient>
		<polygon clip-path="url(#SVGID_23_)" fill="url(#SVGID_24_)" points="23.504,46.642 31.794,49.134 29.319,57.373 21.028,54.88 		
			"/>
	</g>
	<g>
		<defs>
			<polygon id="SVGID_25_" points="34.705,48.562 34.705,55.451 39.14,55.451 39.14,54.222 36.313,54.222 36.313,52.582 
				38.478,52.582 38.478,51.4 36.313,51.4 36.313,49.792 39.14,49.792 39.14,48.562 			"/>
		</defs>
		<clipPath id="SVGID_26_">
			<use xlink:href="#SVGID_25_"  overflow="visible"/>
		</clipPath>
		
			<linearGradient id="SVGID_27_" gradientUnits="userSpaceOnUse" x1="-75.5171" y1="170.8374" x2="-74.5171" y2="170.8374" gradientTransform="matrix(156.63 47.0702 47.0702 -156.63 3718.5605 30333.2793)">
			<stop  offset="0" style="stop-color:#987530"/>
			<stop  offset="0.4804" style="stop-color:#AE8F3F"/>
			<stop  offset="1" style="stop-color:#BC9B3E"/>
		</linearGradient>
		<polygon clip-path="url(#SVGID_26_)" fill="url(#SVGID_27_)" points="35.072,47.341 41.039,49.134 38.772,56.673 32.807,54.88 		
			"/>
	</g>
	<g>
		<defs>
			<polygon id="SVGID_28_" points="44.39,48.562 44.39,55.451 48.541,55.451 48.541,54.175 45.989,54.175 45.989,48.562 			"/>
		</defs>
		<clipPath id="SVGID_29_">
			<use xlink:href="#SVGID_28_"  overflow="visible"/>
		</clipPath>
		
			<linearGradient id="SVGID_30_" gradientUnits="userSpaceOnUse" x1="-75.5264" y1="170.8394" x2="-74.5129" y2="170.8394" gradientTransform="matrix(156.6264 47.0692 47.0692 -156.6264 3722.0332 30331.123)">
			<stop  offset="0" style="stop-color:#987530"/>
			<stop  offset="0.4804" style="stop-color:#AE8F3F"/>
			<stop  offset="1" style="stop-color:#BC9B3E"/>
		</linearGradient>
		<polygon clip-path="url(#SVGID_29_)" fill="url(#SVGID_30_)" points="44.734,47.419 50.439,49.134 48.197,56.595 42.492,54.88 		
			"/>
	</g>
	<g>
		<defs>
			<path id="SVGID_31_" d="M55.811,54.054c-0.241-0.1-0.444-0.244-0.61-0.434c-0.165-0.189-0.292-0.418-0.38-0.691
				c-0.088-0.271-0.132-0.58-0.132-0.924c0-0.342,0.044-0.648,0.132-0.92c0.088-0.273,0.215-0.504,0.38-0.693
				c0.166-0.189,0.369-0.334,0.61-0.434c0.242-0.102,0.517-0.152,0.825-0.152c0.306,0,0.579,0.051,0.818,0.152
				c0.24,0.1,0.442,0.244,0.608,0.434s0.292,0.42,0.381,0.693c0.088,0.271,0.132,0.578,0.132,0.92c0,0.344-0.044,0.652-0.132,0.924
				c-0.089,0.273-0.215,0.502-0.381,0.691s-0.368,0.334-0.608,0.434c-0.239,0.1-0.512,0.15-0.818,0.15
				C56.328,54.205,56.053,54.154,55.811,54.054 M55.17,48.757c-0.44,0.178-0.818,0.426-1.131,0.742
				c-0.314,0.314-0.557,0.686-0.729,1.115c-0.171,0.428-0.257,0.893-0.257,1.391s0.086,0.961,0.257,1.389
				c0.172,0.43,0.415,0.803,0.729,1.119c0.313,0.316,0.691,0.564,1.131,0.744c0.442,0.18,0.931,0.27,1.466,0.27
				c0.537,0,1.024-0.09,1.464-0.27s0.815-0.428,1.127-0.744c0.313-0.316,0.555-0.689,0.726-1.119
				c0.172-0.428,0.258-0.891,0.258-1.389c0-0.496-0.086-0.957-0.258-1.385c-0.171-0.43-0.413-0.803-0.726-1.117
				c-0.312-0.316-0.687-0.562-1.127-0.744s-0.927-0.271-1.464-0.271C56.101,48.488,55.612,48.578,55.17,48.757"/>
		</defs>
		<clipPath id="SVGID_32_">
			<use xlink:href="#SVGID_31_"  overflow="visible"/>
		</clipPath>
		
			<linearGradient id="SVGID_33_" gradientUnits="userSpaceOnUse" x1="-75.5171" y1="170.8374" x2="-74.5171" y2="170.8374" gradientTransform="matrix(156.6276 47.0695 47.0695 -156.6276 3726.0449 30329.0996)">
			<stop  offset="0" style="stop-color:#987530"/>
			<stop  offset="0.4804" style="stop-color:#AE8F3F"/>
			<stop  offset="1" style="stop-color:#BC9B3E"/>
		</linearGradient>
		<polygon clip-path="url(#SVGID_32_)" fill="url(#SVGID_33_)" points="53.646,46.513 62.151,49.07 59.618,57.5 51.113,54.943 		"/>
	</g>
	<g>
		<defs>
			<path id="SVGID_34_" d="M67.016,49.759h0.833c0.201,0,0.375,0.025,0.522,0.074c0.146,0.051,0.267,0.123,0.364,0.215
				c0.095,0.094,0.167,0.205,0.215,0.334c0.047,0.131,0.069,0.273,0.069,0.43c0,0.357-0.091,0.635-0.272,0.832
				c-0.183,0.199-0.483,0.299-0.898,0.299h-0.833V49.759z M65.418,48.562v6.889h1.598v-2.303h0.833c0.476,0,0.888-0.057,1.235-0.172
				c0.349-0.115,0.637-0.273,0.863-0.48c0.228-0.203,0.396-0.449,0.506-0.736c0.111-0.287,0.166-0.602,0.166-0.947
				c0-0.316-0.054-0.613-0.161-0.889c-0.106-0.273-0.273-0.512-0.499-0.713c-0.225-0.201-0.512-0.359-0.86-0.477
				c-0.349-0.113-0.766-0.172-1.25-0.172H65.418z"/>
		</defs>
		<clipPath id="SVGID_35_">
			<use xlink:href="#SVGID_34_"  overflow="visible"/>
		</clipPath>
		
			<linearGradient id="SVGID_36_" gradientUnits="userSpaceOnUse" x1="-75.5171" y1="170.8394" x2="-74.5171" y2="170.8394" gradientTransform="matrix(156.629 47.0699 47.0699 -156.629 3729.8223 30327.4121)">
			<stop  offset="0" style="stop-color:#987530"/>
			<stop  offset="0.4804" style="stop-color:#AE8F3F"/>
			<stop  offset="1" style="stop-color:#BC9B3E"/>
		</linearGradient>
		<polygon clip-path="url(#SVGID_35_)" fill="url(#SVGID_36_)" points="65.849,47.128 72.518,49.134 70.188,56.884 63.52,54.88 		
			"/>
	</g>
	<g>
		<defs>
			<path id="SVGID_37_" d="M82.223,48.562c-0.068,0-0.13,0.002-0.181,0.004c-0.053,0.006-0.099,0.016-0.14,0.029
				c-0.041,0.016-0.078,0.041-0.112,0.074c-0.033,0.033-0.064,0.08-0.097,0.139l-1.769,3.48c-0.065,0.119-0.128,0.246-0.187,0.379
				c-0.059,0.131-0.114,0.268-0.168,0.406c-0.054-0.137-0.109-0.27-0.167-0.396c-0.06-0.131-0.119-0.254-0.184-0.375l-1.771-3.494
				c-0.032-0.059-0.064-0.105-0.098-0.139s-0.069-0.059-0.111-0.074c-0.04-0.014-0.087-0.023-0.14-0.029
				c-0.052-0.002-0.112-0.004-0.182-0.004h-1.22v6.889h1.409V51.49c0-0.092-0.004-0.191-0.01-0.301
				c-0.006-0.107-0.015-0.221-0.023-0.334l1.83,3.551c0.056,0.111,0.133,0.195,0.229,0.252s0.206,0.084,0.329,0.084h0.217
				c0.123,0,0.232-0.027,0.329-0.084c0.096-0.057,0.172-0.141,0.229-0.252l1.83-3.539c-0.014,0.107-0.021,0.217-0.025,0.324
				c-0.006,0.107-0.009,0.207-0.009,0.299v3.961h1.41v-6.889H82.223z"/>
		</defs>
		<clipPath id="SVGID_38_">
			<use xlink:href="#SVGID_37_"  overflow="visible"/>
		</clipPath>
		
			<linearGradient id="SVGID_39_" gradientUnits="userSpaceOnUse" x1="-75.5239" y1="170.8374" x2="-74.5154" y2="170.8374" gradientTransform="matrix(156.6308 47.0705 47.0705 -156.6308 3733.9023 30325.2559)">
			<stop  offset="0" style="stop-color:#987530"/>
			<stop  offset="0.4804" style="stop-color:#AE8F3F"/>
			<stop  offset="1" style="stop-color:#BC9B3E"/>
		</linearGradient>
		<polygon clip-path="url(#SVGID_38_)" fill="url(#SVGID_39_)" points="76.34,46.427 85.342,49.134 82.802,57.585 73.8,54.88 		"/>
	</g>
	<g>
		<defs>
			<polygon id="SVGID_40_" points="89.042,48.562 89.042,55.451 93.477,55.451 93.477,54.222 90.649,54.222 90.649,52.582 
				92.815,52.582 92.815,51.4 90.649,51.4 90.649,49.792 93.477,49.792 93.477,48.562 			"/>
		</defs>
		<clipPath id="SVGID_41_">
			<use xlink:href="#SVGID_40_"  overflow="visible"/>
		</clipPath>
		
			<linearGradient id="SVGID_42_" gradientUnits="userSpaceOnUse" x1="-75.5171" y1="170.8374" x2="-74.5171" y2="170.8374" gradientTransform="matrix(156.6262 47.0691 47.0691 -156.6262 3737.5039 30321.8027)">
			<stop  offset="0" style="stop-color:#987530"/>
			<stop  offset="0.4804" style="stop-color:#AE8F3F"/>
			<stop  offset="1" style="stop-color:#BC9B3E"/>
		</linearGradient>
		<polygon clip-path="url(#SVGID_41_)" fill="url(#SVGID_42_)" points="89.409,47.341 95.376,49.134 93.109,56.673 87.144,54.88 		
			"/>
	</g>
	<g>
		<defs>
			<path id="SVGID_43_" d="M103.331,48.562v3.646c0,0.109,0.004,0.227,0.01,0.352s0.018,0.252,0.033,0.387l-3.277-4.139
				c-0.044-0.053-0.082-0.096-0.118-0.127c-0.034-0.031-0.07-0.055-0.107-0.074c-0.038-0.016-0.081-0.027-0.128-0.035
				c-0.047-0.006-0.106-0.01-0.175-0.01h-0.842v6.889h1.408v-3.691c0-0.102-0.002-0.209-0.007-0.326
				c-0.005-0.113-0.013-0.232-0.026-0.355l3.248,4.109c0.082,0.098,0.165,0.166,0.248,0.205c0.084,0.039,0.188,0.059,0.312,0.059
				h0.831v-6.889H103.331z"/>
		</defs>
		<clipPath id="SVGID_44_">
			<use xlink:href="#SVGID_43_"  overflow="visible"/>
		</clipPath>
		
			<linearGradient id="SVGID_45_" gradientUnits="userSpaceOnUse" x1="-75.5171" y1="170.8374" x2="-74.5171" y2="170.8374" gradientTransform="matrix(156.6275 47.0695 47.0695 -156.6275 3741.2812 30320.1621)">
			<stop  offset="0" style="stop-color:#987530"/>
			<stop  offset="0.4804" style="stop-color:#AE8F3F"/>
			<stop  offset="1" style="stop-color:#BC9B3E"/>
		</linearGradient>
		<polygon clip-path="url(#SVGID_44_)" fill="url(#SVGID_45_)" points="99.225,46.906 106.639,49.134 104.242,57.109 96.828,54.88 
					"/>
	</g>
	<g>
		<defs>
			<polygon id="SVGID_46_" points="109.816,48.562 109.816,49.83 111.754,49.83 111.754,55.451 113.352,55.451 113.352,49.83 
				115.29,49.83 115.29,48.562 			"/>
		</defs>
		<clipPath id="SVGID_47_">
			<use xlink:href="#SVGID_46_"  overflow="visible"/>
		</clipPath>
		
			<linearGradient id="SVGID_48_" gradientUnits="userSpaceOnUse" x1="-75.5171" y1="170.8354" x2="-74.5171" y2="170.8354" gradientTransform="matrix(156.6261 47.0691 47.0691 -156.6261 3745.1211 30317.5215)">
			<stop  offset="0" style="stop-color:#987530"/>
			<stop  offset="0.4804" style="stop-color:#AE8F3F"/>
			<stop  offset="1" style="stop-color:#BC9B3E"/>
		</linearGradient>
		<polygon clip-path="url(#SVGID_47_)" fill="url(#SVGID_48_)" points="110.27,47.054 117.188,49.134 114.837,56.96 107.918,54.88 
					"/>
	</g>
	<g>
		<defs>
			<path id="SVGID_49_" d="M121.717,48.66c-0.293,0.113-0.541,0.268-0.742,0.461c-0.201,0.191-0.354,0.412-0.459,0.658
				c-0.104,0.244-0.155,0.496-0.155,0.756c0,0.32,0.044,0.592,0.132,0.811c0.089,0.219,0.205,0.402,0.348,0.547
				c0.145,0.148,0.308,0.266,0.489,0.355c0.183,0.09,0.371,0.166,0.562,0.227c0.192,0.062,0.381,0.119,0.562,0.168
				c0.184,0.051,0.347,0.109,0.49,0.176s0.259,0.148,0.347,0.25c0.089,0.102,0.133,0.232,0.133,0.393
				c0,0.277-0.081,0.48-0.241,0.607c-0.16,0.129-0.386,0.191-0.676,0.191c-0.215,0-0.4-0.029-0.558-0.09
				c-0.158-0.061-0.297-0.125-0.418-0.197c-0.122-0.074-0.231-0.139-0.327-0.199s-0.192-0.09-0.286-0.09
				c-0.072,0-0.139,0.018-0.201,0.055c-0.061,0.035-0.109,0.08-0.147,0.135l-0.475,0.748c0.137,0.135,0.295,0.258,0.479,0.367
				c0.183,0.109,0.378,0.205,0.586,0.285s0.423,0.145,0.646,0.188c0.223,0.045,0.44,0.066,0.655,0.066
				c0.39,0,0.739-0.059,1.046-0.178c0.309-0.117,0.566-0.281,0.776-0.486c0.21-0.207,0.37-0.449,0.479-0.727
				c0.111-0.277,0.165-0.574,0.165-0.893c0-0.287-0.044-0.531-0.132-0.736c-0.088-0.203-0.204-0.375-0.347-0.516
				c-0.145-0.145-0.309-0.26-0.493-0.352c-0.183-0.092-0.372-0.17-0.564-0.24c-0.191-0.066-0.381-0.129-0.564-0.182
				c-0.186-0.055-0.349-0.117-0.492-0.184c-0.143-0.066-0.259-0.145-0.347-0.236c-0.089-0.092-0.134-0.207-0.134-0.344
				c0-0.217,0.074-0.391,0.221-0.518c0.146-0.129,0.369-0.193,0.669-0.193c0.173,0,0.328,0.023,0.464,0.07
				c0.135,0.045,0.255,0.096,0.361,0.154c0.105,0.055,0.199,0.107,0.283,0.152s0.161,0.068,0.234,0.068
				c0.082,0,0.148-0.02,0.201-0.057c0.052-0.039,0.101-0.094,0.148-0.17l0.397-0.742c-0.123-0.115-0.263-0.215-0.419-0.307
				c-0.155-0.09-0.324-0.166-0.504-0.23c-0.179-0.064-0.368-0.113-0.568-0.146c-0.201-0.033-0.406-0.049-0.618-0.049
				C122.346,48.488,122.011,48.544,121.717,48.66"/>
		</defs>
		<clipPath id="SVGID_50_">
			<use xlink:href="#SVGID_49_"  overflow="visible"/>
		</clipPath>
		
			<linearGradient id="SVGID_51_" gradientUnits="userSpaceOnUse" x1="-75.5205" y1="170.8394" x2="-74.5073" y2="170.8394" gradientTransform="matrix(158.4003 28.1369 28.1369 -158.4003 7234.0137 29230.0293)">
			<stop  offset="0" style="stop-color:#987530"/>
			<stop  offset="0.4804" style="stop-color:#DBB840"/>
			<stop  offset="0.8649" style="stop-color:#BC9B3E"/>
			<stop  offset="1" style="stop-color:#BC9B3E"/>
		</linearGradient>
		<polygon clip-path="url(#SVGID_50_)" fill="url(#SVGID_51_)" points="120.243,47.656 126.14,48.703 124.779,56.359 
			118.883,55.312 		"/>
	</g>
</g>
<g id="Layer_1">
</g>
</svg>
