<?xml version="1.0" encoding="utf-8"?>
<!-- Generator: Adobe Illustrator 16.0.0, SVG Export Plug-In . SVG Version: 6.00 Build 0)  -->
<!DOCTYPE svg PUBLIC "-//W3C//DTD SVG 1.1//EN" "http://www.w3.org/Graphics/SVG/1.1/DTD/svg11.dtd">
<svg version="1.1" id="Layer_1" xmlns="http://www.w3.org/2000/svg" xmlns:xlink="http://www.w3.org/1999/xlink" x="0px" y="0px"
	 width="130px" height="58.667px" viewBox="0 0 130 58.667" enable-background="new 0 0 130 58.667" xml:space="preserve">
<g id="Layer_2">
	<g>
		<g>
			<path id="SVGID_1_" d="M14.304,25.787c0.944-2.472,1.884-4.789,2.82-6.954c0.921,2.165,1.846,4.482,2.775,6.954
				c0.929,2.472,1.861,4.783,2.798,6.931H17.09h-5.584C12.427,30.57,13.36,28.259,14.304,25.787 M4.527,37.207l2.765,4.838
				l2.532-5.643h7.266h7.288l2.533,5.643h4.905L17.102,7.48L4.527,37.207z"/>
		</g>
	</g>
	<g>
		<g>
			<path id="SVGID_3_" d="M57.333,19.521v11.711c0,1.889,0.324,3.625,0.969,5.205c0.66,1.598,1.658,3.057,2.993,4.375
				c1.291,1.336,2.756,2.342,4.398,3.018c1.582,0.646,3.324,0.967,5.229,0.967c1.871,0,3.6-0.33,5.18-0.989
				c0.957-0.384,1.887-0.912,2.791-1.589v-7.053c-0.457,0.887-1.029,1.668-1.731,2.33c-0.845,0.861-1.804,1.514-2.877,1.959
				c-1.093,0.443-2.22,0.668-3.388,0.668c-1.227,0-2.362-0.225-3.405-0.668c-1.074-0.43-2.043-1.082-2.902-1.959
				c-0.891-0.904-1.541-1.863-1.957-2.877c-0.445-1.074-0.668-2.211-0.668-3.408V19.521H57.333z"/>
		</g>
	</g>
	<g>
		<g>
			<path id="SVGID_5_" d="M86.66,36.164v-9.088v-1.441h1.465c0.326,0,0.664-0.003,1.012-0.011s0.703-0.012,1.057-0.012
				c0.729-0.015,1.453-0.027,2.175-0.035c0.723-0.007,1.478,0.011,2.269,0.058c0.729,0.047,1.446,0.241,2.161,0.582
				c0.65,0.294,1.263,0.721,1.836,1.278c0.543,0.559,0.97,1.209,1.277,1.953c0.295,0.742,0.442,1.494,0.442,2.253
				s-0.147,1.521-0.442,2.277c-0.341,0.791-0.767,1.434-1.277,1.932c-0.512,0.541-1.141,0.967-1.883,1.277
				c-0.744,0.293-1.479,0.441-2.209,0.441h-4.929h-1.487H86.66V36.164z M86.66,20.218v-6.857V11.92h1.465h0.35h2.604
				c0.619,0,1.209,0.116,1.769,0.348c0.571,0.264,1.067,0.597,1.485,1c0.435,0.481,0.769,0.992,1,1.535
				c0.231,0.557,0.351,1.154,0.351,1.789c0,0.651-0.117,1.256-0.351,1.814c-0.233,0.558-0.565,1.069-1,1.533
				c-0.513,0.512-1.017,0.884-1.513,1.116c-0.401,0.186-0.967,0.326-1.696,0.419l-0.092,0.023c-0.171,0-0.363,0.007-0.582,0.023
				c-0.959,0.062-1.72,0.108-2.275,0.139l-1.514,0.07L86.66,20.218L86.66,20.218z M88.475,7.48h-6.393v34.564h4.859h1.184h1.488
				h4.928c1.35,0,2.65-0.256,3.904-0.767c1.271-0.543,2.387-1.303,3.348-2.278c0.963-0.978,1.697-2.092,2.209-3.347
				c0.512-1.209,0.768-2.526,0.768-3.952c0-1.41-0.256-2.72-0.768-3.929c-0.512-1.24-1.246-2.364-2.209-3.371
				c-0.295-0.279-0.635-0.55-1.021-0.813c-0.479-0.295-0.961-0.558-1.442-0.791l-1.438-0.65l0.766-1.372
				c0.436-0.76,0.775-1.557,1.025-2.394c0.229-0.822,0.348-1.518,0.348-2.092c0-1.193-0.217-2.309-0.652-3.347
				c-0.447-1.008-1.084-1.929-1.904-2.766c-0.838-0.853-1.813-1.518-2.93-1.999C93.41,7.713,92.256,7.48,91.078,7.48H88.475z"/>
		</g>
	</g>
	<g>
		<g>
			<polygon id="SVGID_7_" points="107.279,7.48 107.279,42.044 113.318,42.044 126.852,42.044 126.852,37.464 113.318,37.464 
				111.883,37.464 111.883,36.005 111.883,28.487 111.883,27.054 113.318,27.054 123.105,27.054 123.105,22.473 113.318,22.473 
				111.883,22.473 111.883,21.015 111.883,13.496 111.883,12.061 113.318,12.061 126.852,12.061 126.852,7.48 			"/>
		</g>
	</g>
	<g>
		<g>
			<path id="SVGID_9_" d="M51.973,1.538c-5.967-0.001-11.39,2.425-15.299,6.338c-3.911,3.907-6.338,9.331-6.337,15.299
				c-0.001,5.967,2.426,11.391,6.337,15.299c3.909,3.91,9.332,6.338,15.299,6.336c0.985,0,1.951-0.07,2.901-0.199v-4.555
				c-0.942,0.16-1.91,0.248-2.901,0.25c-4.737-0.002-9.006-1.914-12.113-5.018c-3.104-3.107-5.017-7.377-5.018-12.115
				c0.001-4.739,1.914-9.007,5.018-12.114c3.107-3.104,7.376-5.017,12.113-5.018c4.56,0.001,8.681,1.776,11.755,4.675h5.93
				c-0.715-1.015-1.51-1.969-2.387-2.842c-3.906-3.912-9.33-6.338-15.294-6.338C51.975,1.538,51.975,1.538,51.973,1.538"/>
		</g>
	</g>
	<g>
		<g>
			<path id="SVGID_11_" d="M6.118,49.875h1.069c0.305,0,0.578,0.051,0.818,0.154c0.239,0.102,0.442,0.248,0.607,0.438
				c0.166,0.191,0.293,0.425,0.381,0.699c0.088,0.273,0.133,0.58,0.133,0.922c0,0.345-0.045,0.652-0.133,0.927
				c-0.088,0.274-0.215,0.506-0.381,0.696C8.447,53.9,8.244,54.048,8.005,54.15c-0.24,0.102-0.513,0.154-0.818,0.154H6.118V49.875z
				 M4.511,48.644v6.889h2.676c0.536,0,1.024-0.084,1.463-0.258c0.44-0.17,0.816-0.41,1.128-0.717
				c0.312-0.309,0.554-0.672,0.726-1.094c0.172-0.42,0.257-0.879,0.257-1.377c0-0.496-0.085-0.953-0.257-1.373
				c-0.172-0.422-0.414-0.785-0.726-1.092c-0.312-0.306-0.688-0.545-1.128-0.717c-0.439-0.175-0.927-0.263-1.463-0.263L4.511,48.644
				L4.511,48.644z"/>
		</g>
	</g>
	<g>
		<g>
			<polygon id="SVGID_13_" points="15.973,48.644 15.973,55.533 20.408,55.533 20.408,54.304 17.581,54.304 17.581,52.664 
				19.746,52.664 19.746,51.482 17.581,51.482 17.581,49.875 20.408,49.875 20.408,48.644 			"/>
		</g>
	</g>
	<g>
		<g>
			<path id="SVGID_15_" d="M30.541,48.644c-0.132,0-0.243,0.037-0.333,0.107c-0.09,0.069-0.152,0.147-0.188,0.238l-1.323,3.688
				c-0.063,0.162-0.122,0.338-0.176,0.527c-0.056,0.19-0.106,0.391-0.15,0.598c-0.053-0.207-0.11-0.406-0.17-0.598
				c-0.061-0.189-0.122-0.365-0.185-0.527l-1.333-3.688c-0.044-0.103-0.109-0.185-0.194-0.248c-0.085-0.064-0.196-0.099-0.335-0.099
				h-1.286l2.761,6.89h1.446l2.762-6.89L30.541,48.644L30.541,48.644z"/>
		</g>
	</g>
	<g>
		<g>
			<polygon id="SVGID_17_" points="36.646,48.644 36.646,55.533 41.081,55.533 41.081,54.304 38.254,54.304 38.254,52.664 
				40.419,52.664 40.419,51.482 38.254,51.482 38.254,49.875 41.081,49.875 41.081,48.644 			"/>
		</g>
	</g>
	<g>
		<g>
			<polygon id="SVGID_19_" points="46.331,48.644 46.331,55.533 50.482,55.533 50.482,54.257 47.93,54.257 47.93,48.644 			"/>
		</g>
	</g>
	<g>
		<g>
			<path id="SVGID_21_" d="M57.751,54.136c-0.24-0.1-0.443-0.244-0.609-0.434c-0.165-0.189-0.292-0.418-0.381-0.691
				c-0.088-0.271-0.131-0.58-0.131-0.924c0-0.342,0.043-0.648,0.131-0.92c0.089-0.273,0.216-0.504,0.381-0.693
				c0.166-0.189,0.369-0.334,0.609-0.434c0.242-0.103,0.518-0.152,0.826-0.152c0.305,0,0.578,0.051,0.817,0.152
				c0.239,0.1,0.442,0.244,0.608,0.434s0.291,0.42,0.381,0.693c0.088,0.271,0.131,0.578,0.131,0.92c0,0.344-0.043,0.652-0.131,0.924
				c-0.09,0.273-0.215,0.502-0.381,0.691c-0.166,0.188-0.369,0.334-0.608,0.434c-0.239,0.1-0.513,0.15-0.817,0.15
				C58.269,54.287,57.994,54.236,57.751,54.136 M57.111,48.839c-0.439,0.178-0.818,0.426-1.131,0.742
				c-0.314,0.313-0.557,0.686-0.729,1.114c-0.171,0.429-0.257,0.894-0.257,1.392s0.086,0.961,0.257,1.389
				c0.172,0.43,0.415,0.803,0.729,1.119c0.312,0.316,0.691,0.564,1.131,0.744c0.441,0.18,0.932,0.27,1.467,0.27
				c0.536,0,1.023-0.09,1.463-0.27s0.815-0.428,1.127-0.744s0.555-0.689,0.727-1.119c0.172-0.428,0.258-0.891,0.258-1.389
				c0-0.496-0.086-0.957-0.258-1.385c-0.172-0.431-0.414-0.804-0.727-1.117c-0.312-0.316-0.687-0.562-1.127-0.744
				c-0.439-0.182-0.927-0.271-1.463-0.271C58.042,48.57,57.552,48.66,57.111,48.839"/>
		</g>
	</g>
	<g>
		<g>
			<path id="SVGID_23_" d="M68.957,49.841h0.832c0.201,0,0.375,0.025,0.523,0.074c0.145,0.051,0.266,0.123,0.362,0.215
				c0.097,0.094,0.168,0.205,0.216,0.334c0.047,0.131,0.069,0.272,0.069,0.43c0,0.357-0.092,0.635-0.272,0.832
				c-0.183,0.199-0.482,0.299-0.898,0.299h-0.832V49.841z M67.359,48.644v6.889h1.598V53.23h0.832c0.477,0,0.889-0.057,1.236-0.172
				c0.347-0.115,0.637-0.273,0.863-0.48c0.227-0.203,0.395-0.449,0.506-0.736c0.11-0.286,0.166-0.602,0.166-0.946
				c0-0.315-0.056-0.612-0.162-0.89c-0.105-0.272-0.273-0.512-0.498-0.713c-0.226-0.201-0.512-0.358-0.861-0.477
				c-0.348-0.113-0.766-0.172-1.25-0.172H67.359z"/>
		</g>
	</g>
	<g>
		<g>
			<path id="SVGID_25_" d="M84.164,48.644c-0.068,0-0.131,0.002-0.182,0.004c-0.053,0.006-0.099,0.016-0.14,0.029
				c-0.041,0.016-0.077,0.041-0.112,0.074c-0.033,0.033-0.064,0.08-0.097,0.139l-1.771,3.48c-0.063,0.119-0.127,0.246-0.186,0.379
				c-0.059,0.131-0.115,0.268-0.168,0.406c-0.055-0.138-0.109-0.271-0.168-0.396c-0.059-0.131-0.119-0.254-0.184-0.375l-1.771-3.494
				c-0.031-0.059-0.063-0.105-0.098-0.139c-0.034-0.035-0.068-0.06-0.111-0.074c-0.039-0.014-0.086-0.023-0.139-0.029
				c-0.053-0.002-0.113-0.004-0.182-0.004h-1.221v6.889h1.409v-3.961c0-0.092-0.004-0.191-0.01-0.301
				c-0.007-0.107-0.017-0.221-0.022-0.334l1.829,3.551c0.056,0.111,0.134,0.195,0.229,0.252s0.205,0.084,0.328,0.084h0.217
				c0.123,0,0.232-0.027,0.33-0.084c0.096-0.057,0.172-0.141,0.229-0.252l1.83-3.539c-0.014,0.107-0.021,0.217-0.025,0.324
				c-0.006,0.107-0.008,0.207-0.008,0.299v3.961h1.41v-6.889H84.164z"/>
		</g>
	</g>
	<g>
		<g>
			<polygon id="SVGID_27_" points="90.982,48.644 90.982,55.533 95.418,55.533 95.418,54.304 92.59,54.304 92.59,52.664 
				94.756,52.664 94.756,51.482 92.59,51.482 92.59,49.875 95.418,49.875 95.418,48.644 			"/>
		</g>
	</g>
	<g>
		<g>
			<path id="SVGID_29_" d="M105.271,48.644v3.646c0,0.108,0.004,0.227,0.01,0.352s0.018,0.252,0.033,0.387l-3.277-4.139
				c-0.043-0.053-0.082-0.096-0.117-0.127s-0.07-0.055-0.107-0.074c-0.039-0.016-0.082-0.027-0.129-0.035
				c-0.047-0.006-0.104-0.01-0.174-0.01h-0.842v6.889h1.408v-3.691c0-0.102-0.002-0.209-0.008-0.325
				c-0.004-0.113-0.012-0.231-0.025-0.354l3.248,4.108c0.082,0.099,0.164,0.166,0.248,0.205s0.188,0.06,0.311,0.06h0.832v-6.89
				L105.271,48.644L105.271,48.644z"/>
		</g>
	</g>
	<g>
		<g>
			<polygon id="SVGID_31_" points="111.758,48.644 111.758,49.912 113.695,49.912 113.695,55.533 115.293,55.533 115.293,49.912 
				117.23,49.912 117.23,48.644 			"/>
		</g>
	</g>
	<g>
		<g>
			<path id="SVGID_33_" d="M123.658,48.742c-0.293,0.113-0.541,0.268-0.742,0.461c-0.201,0.191-0.355,0.412-0.459,0.658
				c-0.104,0.244-0.156,0.496-0.156,0.756c0,0.32,0.045,0.592,0.133,0.811c0.088,0.22,0.205,0.402,0.349,0.548
				c0.145,0.147,0.307,0.267,0.487,0.354c0.185,0.09,0.371,0.166,0.562,0.228c0.193,0.062,0.381,0.118,0.562,0.168
				c0.184,0.051,0.348,0.108,0.489,0.176c0.146,0.065,0.261,0.147,0.349,0.25s0.133,0.231,0.133,0.394
				c0,0.276-0.082,0.479-0.242,0.606c-0.16,0.13-0.385,0.19-0.676,0.19c-0.215,0-0.4-0.028-0.557-0.09
				c-0.158-0.061-0.298-0.125-0.418-0.196c-0.123-0.074-0.232-0.14-0.328-0.199c-0.097-0.06-0.191-0.09-0.285-0.09
				c-0.072,0-0.139,0.019-0.201,0.055c-0.061,0.035-0.109,0.08-0.148,0.136l-0.475,0.748c0.137,0.135,0.295,0.258,0.479,0.366
				c0.185,0.109,0.379,0.205,0.586,0.285c0.209,0.08,0.424,0.146,0.646,0.188c0.223,0.045,0.439,0.065,0.654,0.065
				c0.391,0,0.74-0.06,1.047-0.178c0.309-0.117,0.566-0.281,0.775-0.486c0.211-0.206,0.37-0.448,0.479-0.728
				c0.11-0.276,0.164-0.573,0.164-0.893c0-0.287-0.043-0.531-0.132-0.736c-0.088-0.202-0.205-0.375-0.348-0.516
				c-0.145-0.145-0.309-0.26-0.492-0.352c-0.183-0.092-0.373-0.17-0.563-0.24c-0.19-0.066-0.381-0.129-0.563-0.182
				c-0.187-0.055-0.351-0.117-0.492-0.184c-0.143-0.068-0.26-0.146-0.349-0.236c-0.088-0.092-0.133-0.207-0.133-0.344
				c0-0.218,0.074-0.392,0.222-0.519c0.146-0.129,0.368-0.192,0.668-0.192c0.174,0,0.328,0.022,0.465,0.069
				c0.135,0.045,0.254,0.097,0.36,0.153c0.104,0.056,0.199,0.107,0.283,0.152s0.16,0.068,0.233,0.068
				c0.082,0,0.148-0.02,0.201-0.057c0.051-0.039,0.101-0.094,0.148-0.17l0.396-0.742c-0.123-0.115-0.263-0.215-0.418-0.307
				c-0.156-0.091-0.324-0.166-0.504-0.23c-0.181-0.064-0.369-0.113-0.568-0.146c-0.201-0.033-0.406-0.049-0.619-0.049
				C124.287,48.57,123.951,48.626,123.658,48.742"/>
		</g>
	</g>
</g>
<g id="Layer_1_1_">
</g>
</svg>
