<?xml version="1.0" encoding="utf-8"?>
<!-- Generator: Adobe Illustrator 16.0.0, SVG Export Plug-In . SVG Version: 6.00 Build 0)  -->
<!DOCTYPE svg PUBLIC "-//W3C//DTD SVG 1.1//EN" "http://www.w3.org/Graphics/SVG/1.1/DTD/svg11.dtd">
<svg version="1.1" id="Layer_1" xmlns="http://www.w3.org/2000/svg" xmlns:xlink="http://www.w3.org/1999/xlink" x="0px" y="0px"
	 width="256px" height="256px" viewBox="0 0 256 256" enable-background="new 0 0 256 256" xml:space="preserve">
<g transform="translate(0.000000,256.000000) scale(0.100000,-0.100000)">
	<path fill="#FFFFFF" d="M195,2261.001c-69-17.002-116-55-151-121.001c-18-32.998-19-72.998-19-835s1-802.002,19-835
		c26-49.004,55-79.004,101-102.998L185,345h1100h1100l40,22.002c45.996,23.994,75,53.994,100.996,102.998
		c18.008,32.998,19.004,72.998,19.004,835c0,800,0,800-22.004,840c-23.992,46.001-53.992,75-102.996,101.001
		c-33,17.998-82.004,18.999-1115,21.001C711,2267.002,212,2265,195,2261.001z M2194.004,2017.002
		c-54.004-56.001-280-285-501.008-507.002L1290,1105l-507.004,507.998L275,2120h1009h1010.004L2194.004,2017.002z M670,1525l215-215
		L527.996,952.998L170,595v708.999v708.003l142.996-135C391,1802.002,552,1643.999,670,1525z M2400,1302.998V595l-355,355l-355,355
		l352,352.002C2235.996,1851.001,2395.996,2010,2397,2010C2399.004,2010,2400,1692.002,2400,1302.998z M1125,1070
		c174.004-172.002,156-172.002,329.004,0l131.992,130L1940,845l355-355H1285H275l355,355c195,195,357,355,359,355
		C992,1200,1052.996,1142.002,1125,1070z"/>
</g>
</svg>
