<?xml version="1.0" standalone="no"?>
<!DOCTYPE svg PUBLIC "-//W3C//DTD SVG 20010904//EN"
 "http://www.w3.org/TR/2001/REC-SVG-20010904/DTD/svg10.dtd">
<svg version="1.0" xmlns="http://www.w3.org/2000/svg"
 width="256.000000pt" height="256.000000pt" viewBox="0 0 256.000000 256.000000"
 preserveAspectRatio="xMidYMid meet">

<g transform="translate(0.000000,256.000000) scale(0.100000,-0.100000)"
fill="#000000" stroke="none">
<path d="M195 2261 c-69 -17 -116 -55 -151 -121 -18 -33 -19 -73 -19 -835 0
-762 1 -802 19 -835 26 -49 55 -79 101 -103 l40 -22 1100 0 1100 0 40 22 c46
24 75 54 101 103 18 33 19 73 19 835 0 800 0 800 -22 840 -24 46 -54 75 -103
101 -33 18 -82 19 -1115 21 -594 0 -1093 -2 -1110 -6z m1999 -244 c-54 -56
-280 -285 -501 -507 l-403 -405 -507 508 -508 507 1009 0 1010 0 -100 -103z
m-1524 -492 l215 -215 -357 -357 -358 -358 0 709 0 708 143 -135 c78 -75 239
-233 357 -352z m1730 -222 l0 -708 -355 355 -355 355 352 352 c194 194 354
353 355 353 2 0 3 -318 3 -707z m-1275 -233 c174 -172 156 -172 329 0 l132
130 354 -355 355 -355 -1010 0 -1010 0 355 355 c195 195 357 355 359 355 3 0
64 -58 136 -130z"/>
</g>
</svg>
