<?xml version="1.0" encoding="utf-8"?>
<!-- Generator: Adobe Illustrator 16.0.0, SVG Export Plug-In . SVG Version: 6.00 Build 0)  -->
<!DOCTYPE svg PUBLIC "-//W3C//DTD SVG 1.1//EN" "http://www.w3.org/Graphics/SVG/1.1/DTD/svg11.dtd">
<svg version="1.1" id="Layer_1" xmlns="http://www.w3.org/2000/svg" xmlns:xlink="http://www.w3.org/1999/xlink" x="0px" y="0px"
	 width="512px" height="512px" viewBox="0 0 512 512" enable-background="new 0 0 512 512" xml:space="preserve">
<g transform="translate(0.000000,512.000000) scale(0.100000,-0.100000)">
	<path d="M230.288,2491.123c19.004-50,65-102.002,111.001-122.998c40-17.998,106.001-19.004,1941.001-19.004h1899.995
		l-361.992-362.002c-377.012-377.998-402.012-408.994-403.008-488.994c0-84.004,47.012-159.004,124.004-195
		c61.992-29.004,116.992-30,175.996-2.998c60.996,26.992,1140,1102.998,1172.012,1166.992c26.992,57.002,26.992,136.011,0,188.003
		c-12.012,23.008-256.016,274.004-589.004,605c-523.008,521.006-572.012,567.002-615.01,579.004
		c-152.002,40-302.998-105.996-265.996-259.004c10-41.992,40-75.996,383.994-420.996
		c206.016-207.002,374.004-379.004,374.004-382.998c0-4.004-855-7.002-1899.995-7.002c-1862.002,0-1902.002,0-1938.999-19.004
		C241.289,2700.122,195.288,2589.125,230.288,2491.123z"/>
</g>
</svg>
