<?xml version="1.0" encoding="utf-8"?>
<!-- Generator: Adobe Illustrator 16.0.0, SVG Export Plug-In . SVG Version: 6.00 Build 0)  -->
<!DOCTYPE svg PUBLIC "-//W3C//DTD SVG 1.1//EN" "http://www.w3.org/Graphics/SVG/1.1/DTD/svg11.dtd">
<svg version="1.1" id="Layer_1" xmlns="http://www.w3.org/2000/svg" xmlns:xlink="http://www.w3.org/1999/xlink" x="0px" y="0px"
	 width="512px" height="512px" viewBox="0 0 512 512" enable-background="new 0 0 512 512" xml:space="preserve">
<g transform="translate(0.000000,512.000000) scale(0.100000,-0.100000)">
	<path d="M230.285,2491.133c19.004-50,65-102.012,111.004-123.008c40-17.998,105.996-19.004,1941-19.004h1899.996l-361.992-361.992
		c-377.012-378.008-402.012-409.004-403.008-489.004c0-84.004,47.012-159.004,124.004-195c61.992-29.004,116.992-30,175.996-2.998
		c60.996,27.002,1140,1102.998,1172.012,1167.002c26.992,56.992,26.992,136.001,0,187.993
		c-12.012,23.008-256.016,274.004-589.004,605c-523.008,521.006-572.012,567.002-615,579.004
		c-152.012,40-303.008-105.996-265.996-259.004c10-41.992,40-75.996,383.984-420.996
		c206.016-207.002,374.004-379.004,374.004-382.998c0-4.004-855-7.002-1899.996-7.002c-1862.004,0-1902.004,0-1938.996-19.004
		C241.289,2700.122,195.285,2589.126,230.285,2491.133z"/>
</g>
</svg>
