<?xml version="1.0" encoding="utf-8"?>
<!-- Generator: Adobe Illustrator 16.0.0, SVG Export Plug-In . SVG Version: 6.00 Build 0)  -->
<!DOCTYPE svg PUBLIC "-//W3C//DTD SVG 1.1//EN" "http://www.w3.org/Graphics/SVG/1.1/DTD/svg11.dtd">
<svg version="1.1" id="Layer_1" xmlns="http://www.w3.org/2000/svg" xmlns:xlink="http://www.w3.org/1999/xlink" x="0px" y="0px"
	 width="512px" height="512px" viewBox="0 0 512 512" enable-background="new 0 0 512 512" xml:space="preserve">
<g transform="translate(0.000000,512.000000) scale(0.100000,-0.100000)">
	<path fill="#FFFFFF" d="M2325,4588.999c-241-25-467.004-91.997-690-203.999c-313-157.002-550-366.001-746-658.999
		C464,3095,444,2267.002,835,1589.004l44-76.006L709,1055C581,707.998,541,589.004,545,567.998c8-35,59-77.998,92.004-77.998
		C651,490,859,572.998,1099,675l436,185l155-77.998c454-230,960.996-287.002,1447-162.998
		C3827.996,795.996,4377,1352.002,4545.996,2045c72,299.004,72,662.002,0,960c-150,612.002-565,1120-1140.996,1396.001
		C3075,4558.999,2684.004,4627.001,2325,4588.999z M2710,4388.999c825.996-83.999,1495.996-696.997,1662-1520
		c20-98.999,23-142.998,23-343.999c0-180.996-4.004-249.004-18-320c-90-449.004-315-819.004-660-1085.996
		c-585-453.008-1401-492.002-2051-100C1615,1050,1570,1070,1552.996,1070C1536,1070,1366,1002.998,1174,922.002
		C982,840,824,774.004,822,775c-1,0.996,58,167.002,133,367.998c74,201.006,135,377.002,135,389.004
		c0,12.998-21,57.002-47.004,97.998C659,2245,661,3018.999,1047,3605C1410,4156,2049,4457.001,2710,4388.999z"/>
	<path fill="#FFFFFF" d="M1855,3772.998C1739,3726,1591,3598.999,1515,3480c-84-128.999-108-247.002-86-412.002
		c58-435,346-900.996,766-1240.996c327-265,690.996-417.002,999.004-420c83.992,0,112.996,3.994,172.996,25
		c170,60,352.004,232.002,420,397.998c38.996,94.004,25.996,197.002-32,254.004c-17.004,16.992-80,60.996-140,96.992
		c-60.996,36.006-159.004,96.006-219.004,132.002c-170,104.004-241.992,117.002-335,60c-40.996-25.996-73.996-60.996-183-192.998
		l-37-45l-38,14.004C2710,2182.002,2524,2324.004,2399,2457.998c-126.004,135-239,301.001-239,352.002
		c0,11.001,31,43.999,72.996,78.999C2330,2967.998,2406,3051,2420,3096c25,75-6,153.999-158,398.999
		c-150,241.001-154.004,247.002-201,272.002C2007.996,3795,1916,3797.998,1855,3772.998z M2007.996,3525
		C2027,3492.001,2075,3412.998,2115,3350s82-133.999,92.996-157.002L2230,3151l-67.004-58.003
		C1962,2918.999,1939,2885,1960,2787.002c27-131.001,139-304.004,309-480c221-227.998,438-367.002,578-367.998
		c72.004-1.006,108.996,23.994,208,142.998c117.996,140.996,105.996,133.994,179.004,95c32.996-19.004,123.992-72.998,200.996-120
		c77-47.998,147.996-92.002,159.004-97.998c26.992-16.006,15-59.004-39.004-134.004c-85-120-215-209.004-320-220.996
		c-69.004-8.008-232.004,18.994-345,55.996c-597.004,197.998-1156,817.998-1256,1390c-31.004,180-5,275,110,397.998
		c73,78.003,170,144.004,205,140C1967.996,3586,1982.996,3570,2007.996,3525z"/>
</g>
</svg>
